<svg id="Capa_1" data-name="Capa 1" xmlns="http://www.w3.org/2000/svg" viewBox="0 0 144 49.89"><defs><style>.cls-1{fill:#fab918;}</style></defs><title>LOGO MOSTAZA DMODA</title><path class="cls-1" d="M24.4,15.09H17.18a.76.76,0,0,0-.75.76V36.12a.76.76,0,0,0,.75.75H24.4C31.76,36.87,35.82,33,35.82,26S31.76,15.09,24.4,15.09ZM32.87,26c0,5.29-3,8.2-8.47,8.2H19.7a.32.32,0,0,1-.33-.32V18.09a.32.32,0,0,1,.33-.32h4.7C29.86,17.77,32.87,20.69,32.87,26Z"/><path class="cls-1" d="M67.85,15.09H65.17a.93.93,0,0,0-.86.55L57.18,28.49,50,15.68a1,1,0,0,0-.88-.59H46.47a1,1,0,0,0-1,1V35.92a1,1,0,0,0,1,.95h1.41a1,1,0,0,0,.95-.95V20.61l6.86,11.92.07.1h0a1.68,1.68,0,0,0,2.78,0h0l6.93-12.1V35.92a1,1,0,0,0,1,.95h1.41a1,1,0,0,0,1-.95V16.05A1,1,0,0,0,67.85,15.09Z"/><path class="cls-1" d="M83,14.12c-7,0-11.69,4.69-11.69,11.66S76,37.41,83,37.41s11.72-4.67,11.72-11.63S90.08,14.12,83,14.12Zm8.75,11.66c0,5.44-3.43,9-8.75,9s-8.75-3.52-8.75-9,3.44-9,8.75-9S91.71,20.32,91.71,25.78Z"/><path class="cls-1" d="M105.1,15.09H97.88a.76.76,0,0,0-.75.76V36.12a.76.76,0,0,0,.75.75h7.22c7.36,0,11.42-3.86,11.42-10.87S112.46,15.09,105.1,15.09ZM113.57,26c0,5.29-3,8.2-8.47,8.2h-4.7a.32.32,0,0,1-.33-.32V18.09a.32.32,0,0,1,.33-.32h4.7C110.56,17.77,113.57,20.69,113.57,26Z"/><path class="cls-1" d="M135.63,35.85l-7.82-20.27a.76.76,0,0,0-.7-.49h-2.29a.78.78,0,0,0-.71.48l-7.88,20.28a.71.71,0,0,0,.09.69.74.74,0,0,0,.62.33h1.54a.75.75,0,0,0,.7-.48l1.7-4.43a.34.34,0,0,1,.3-.21h9.56a.34.34,0,0,1,.3.21l1.67,4.43a.76.76,0,0,0,.71.48h1.51a.75.75,0,0,0,.7-1Zm-5.79-6.91a.32.32,0,0,1-.27.14h-7.25a.32.32,0,0,1-.3-.43L126,18.32l3.91,10.33A.3.3,0,0,1,129.84,28.94Z"/><path class="cls-1" d="M40.61,15.19a.49.49,0,0,0-.1-.08,1.42,1.42,0,0,0-.28-.2,2.08,2.08,0,0,0-1-.29A2.13,2.13,0,1,0,40,18.71v.06a2.16,2.16,0,0,1-2.09,1.93.7.7,0,0,0-.69.46.61.61,0,0,0,.08.57.68.68,0,0,0,.51.3l.31,0a3,3,0,0,0,2-.78,4.67,4.67,0,0,0,1.29-3.51A3.54,3.54,0,0,0,40.61,15.19Z"/></svg>