<svg id="Capa_1" data-name="Capa 1" xmlns="http://www.w3.org/2000/svg" viewBox="0 0 147 47.89"><defs><style>.cls-1{fill:#fff;stroke:#fff;stroke-miterlimit:10;stroke-width:0.22px;}</style></defs><title>LOGO ESPACIADO BLANCO DMODA</title><path class="cls-1" d="M19.79,14.65H13.16a.69.69,0,0,0-.69.69V34a.69.69,0,0,0,.69.7h6.63c6.76,0,10.49-3.55,10.49-10S26.55,14.65,19.79,14.65Zm7.78,10c0,4.86-2.76,7.53-7.78,7.53H15.47a.3.3,0,0,1-.3-.29V17.4a.31.31,0,0,1,.3-.3h4.32C24.81,17.1,27.57,19.79,27.57,24.67Z"/><path class="cls-1" d="M64.64,14.65H62.17a.86.86,0,0,0-.79.5L54.83,27,48.27,15.19a.88.88,0,0,0-.81-.54H45a.88.88,0,0,0-.88.88V33.78a.89.89,0,0,0,.88.88h1.3a.88.88,0,0,0,.87-.88V19.72l6.3,10.94.06.1h0a1.55,1.55,0,0,0,1.29.69,1.53,1.53,0,0,0,1.26-.65h0l6.37-11.11V33.78a.88.88,0,0,0,.87.88h1.3a.88.88,0,0,0,.87-.88V15.53A.87.87,0,0,0,64.64,14.65Z"/><path class="cls-1" d="M81.43,13.75c-6.43,0-10.74,4.31-10.74,10.72S75,35.15,81.43,35.15,92.2,30.86,92.2,24.47,88,13.75,81.43,13.75Zm8,10.72c0,5-3.15,8.23-8,8.23s-8-3.23-8-8.23,3.16-8.26,8-8.26S89.46,19.45,89.46,24.47Z"/><path class="cls-1" d="M104.68,14.65H98.05a.69.69,0,0,0-.69.69V34a.69.69,0,0,0,.69.7h6.63c6.76,0,10.49-3.55,10.49-10S111.44,14.65,104.68,14.65Zm7.78,10c0,4.86-2.76,7.53-7.78,7.53h-4.32a.29.29,0,0,1-.3-.29V17.4a.3.3,0,0,1,.3-.3h4.32C109.7,17.1,112.46,19.79,112.46,24.67Z"/><path class="cls-1" d="M135.86,33.72l-7.18-18.63a.72.72,0,0,0-.65-.44h-2.1a.7.7,0,0,0-.65.44L118,33.71a.7.7,0,0,0,.65.95h1.41a.69.69,0,0,0,.65-.45l1.56-4.06a.3.3,0,0,1,.28-.19h8.78a.28.28,0,0,1,.27.19l1.54,4.06a.69.69,0,0,0,.65.45h1.39a.69.69,0,0,0,.64-.94Zm-5.32-6.35a.31.31,0,0,1-.24.13h-6.67a.31.31,0,0,1-.24-.13.26.26,0,0,1,0-.27L127,17.61l3.59,9.49A.26.26,0,0,1,130.54,27.37Z"/><path class="cls-1" d="M37.6,14.74l-.1-.08a2.27,2.27,0,0,0-.25-.18,2,2,0,0,0-.81-.26,2,2,0,0,0-2.11,1.87,2,2,0,0,0,2,2A1.87,1.87,0,0,0,37,18h0a2,2,0,0,1-1.93,1.83.64.64,0,0,0-.63.42.62.62,0,0,0,.07.53A.61.61,0,0,0,35,21l.29,0a2.77,2.77,0,0,0,1.89-.72,4.29,4.29,0,0,0,1.18-3.22A3.27,3.27,0,0,0,37.6,14.74Z"/></svg>